<?xml version="1.0" encoding="utf-8"?>
<!-- Generator: Adobe Illustrator 19.0.0, SVG Export Plug-In . SVG Version: 6.00 Build 0)  -->
<svg version="1.1" id="Calque_1" xmlns="http://www.w3.org/2000/svg" xmlns:xlink="http://www.w3.org/1999/xlink" x="0px" y="0px"
	 viewBox="0 0 37 37" style="enable-background:new 0 0 37 37;" xml:space="preserve">
<style type="text/css">
	.st0{fill:#813F90;}
	.st1{fill:#FFFFFF;}
</style>
<circle id="XMLID_1_" class="st0" cx="18.5" cy="18.5" r="18.5"/>
<g id="XMLID_14_">
	<g id="XMLID_22_">
		<path id="XMLID_27_" class="st1" d="M23.5,13.2h2.2l-3.2-5.5c-0.3-0.4-0.8-0.6-1.3-0.3c-0.4,0.3-0.6,0.8-0.3,1.3L23.5,13.2z
			 M23.5,13.2"/>
		<path id="XMLID_24_" class="st1" d="M16.2,8.6c0.3-0.4,0.1-1-0.3-1.3c-0.4-0.3-1-0.1-1.3,0.3l-3.2,5.5h2.2L16.2,8.6z M16.2,8.6"/>
	</g>
	<path id="XMLID_15_" class="st1" d="M29.2,14.8H7.7c-0.9,0-1.6,0.7-1.6,1.6v1.8c0,0.9,0.7,1.6,1.6,1.6h0.5l1.5,8.3
		c0.2,1,1.1,1.8,2,1.8h13.1c0.9,0,1.8-0.8,2-1.8l1.5-8.3h0.8c0.9,0,1.6-0.7,1.6-1.6v-1.8C30.8,15.5,30.1,14.8,29.2,14.8L29.2,14.8z
		 M14.9,23.1v3.6c0,0.5-0.4,0.9-0.9,0.9c-0.5,0-0.9-0.4-0.9-0.9v-5c0-0.5,0.4-0.9,0.9-0.9c0.5,0,0.9,0.4,0.9,0.9V23.1z M17.8,23.1
		v3.6c0,0.5-0.4,0.9-0.9,0.9c-0.5,0-0.9-0.4-0.9-0.9v-5c0-0.5,0.4-0.9,0.9-0.9c0.5,0,0.9,0.4,0.9,0.9V23.1z M20.7,25.2v1.5
		c0,0.5-0.4,0.9-0.9,0.9c-0.5,0-0.9-0.4-0.9-0.9v-5c0-0.5,0.4-0.9,0.9-0.9c0.5,0,0.9,0.4,0.9,0.9V25.2z M23.6,25.2v1.5
		c0,0.5-0.4,0.9-0.9,0.9c-0.5,0-0.9-0.4-0.9-0.9v-5c0-0.5,0.4-0.9,0.9-0.9c0.5,0,0.9,0.4,0.9,0.9V25.2z M23.6,25.2"/>
</g>
</svg>

