<?xml version="1.0" encoding="utf-8"?>
<!-- Generator: Adobe Illustrator 19.0.0, SVG Export Plug-In . SVG Version: 6.00 Build 0)  -->
<svg version="1.1" id="Calque_1" xmlns="http://www.w3.org/2000/svg" xmlns:xlink="http://www.w3.org/1999/xlink" x="0px" y="0px"
	 viewBox="122 -27 281 91" style="enable-background:new 122 -27 281 91;" xml:space="preserve">
<style type="text/css">
	.st0{fill:#669C24;}
	.st1{fill:#813F90;}
	.st2{fill:#4C9E45;}
</style>
<g id="XMLID_41_">
	<path id="XMLID_43_" class="st0" d="M211.9,28.1c0,2.6-0.7,4.9-2,7c-1.3,2.1-3.3,3.7-5.9,4.9c-2.6,1.2-5.6,1.8-9.2,1.8
		c-4.2,0-7.7-0.8-10.5-2.4c-2-1.2-3.5-2.7-4.8-4.6c-1.2-1.9-1.8-3.8-1.8-5.6c0-1.1,0.4-2,1.1-2.7c0.7-0.8,1.7-1.1,2.8-1.1
		c0.9,0,1.7,0.3,2.3,0.9c0.6,0.6,1.2,1.5,1.6,2.6c0.5,1.4,1.1,2.5,1.8,3.4c0.6,0.9,1.5,1.7,2.7,2.3s2.7,0.9,4.5,0.9
		c2.6,0,4.7-0.6,6.3-1.8c1.6-1.2,2.4-2.7,2.4-4.5c0-1.4-0.4-2.6-1.3-3.5c-0.9-0.9-2-1.6-3.4-2c-1.4-0.5-3.2-1-5.5-1.5
		c-3.1-0.7-5.7-1.6-7.8-2.5c-2.1-1-3.7-2.3-5-4c-1.2-1.7-1.8-3.7-1.8-6.2c0-2.4,0.6-4.5,1.9-6.3s3.2-3.2,5.6-4.2
		c2.4-1,5.3-1.5,8.6-1.5c2.6,0,4.9,0.3,6.8,1s3.5,1.5,4.8,2.6s2.2,2.2,2.8,3.4c0.6,1.2,0.9,2.4,0.9,3.5c0,1-0.4,2-1.1,2.8
		S207.1,12,206,12c-1,0-1.8-0.3-2.3-0.7c-0.5-0.5-1.1-1.3-1.7-2.4c-0.8-1.6-1.7-2.9-2.8-3.8c-1.1-0.9-2.9-1.4-5.3-1.4
		c-2.2,0-4.1,0.5-5.4,1.5c-1.4,1-2.1,2.2-2.1,3.6c0,0.9,0.2,1.6,0.7,2.2c0.5,0.6,1.1,1.2,1.9,1.6c0.8,0.5,1.7,0.8,2.5,1.1
		c0.8,0.3,2.2,0.6,4.2,1.1c2.4,0.6,4.6,1.2,6.6,1.9s3.6,1.5,5,2.5s2.5,2.2,3.2,3.7C211.5,24.1,211.9,25.9,211.9,28.1"/>
	<path id="XMLID_46_" class="st0" d="M240.7,27.4H225c0,1.8,0.4,3.4,1.1,4.8c0.7,1.4,1.7,2.4,2.8,3.1c1.2,0.7,2.5,1.1,3.9,1.1
		c1,0,1.8-0.1,2.6-0.3c0.8-0.2,1.6-0.6,2.3-1.1c0.7-0.5,1.4-1,2.1-1.5c0.6-0.5,1.4-1.3,2.4-2.2c0.4-0.4,1-0.5,1.8-0.5
		c0.8,0,1.5,0.2,2,0.7s0.8,1.1,0.8,1.9c0,0.7-0.3,1.6-0.8,2.5c-0.6,1-1.4,1.9-2.6,2.8c-1.1,0.9-2.6,1.6-4.3,2.2
		c-1.7,0.6-3.7,0.9-6,0.9c-5.1,0-9.1-1.5-12-4.4s-4.3-6.9-4.3-11.9c0-2.4,0.4-4.6,1.1-6.6c0.7-2,1.7-3.8,3.1-5.2
		c1.3-1.4,3-2.6,5-3.3c2-0.8,4.2-1.2,6.6-1.2c3.1,0,5.8,0.7,8,2c2.2,1.3,3.9,3,5,5.1c1.1,2.1,1.7,4.2,1.7,6.4c0,2-0.6,3.3-1.7,3.9
		C244.4,27.1,242.8,27.4,240.7,27.4 M225,22.9h14.5c-0.2-2.7-0.9-4.8-2.2-6.1c-1.3-1.4-3-2-5.1-2c-2,0-3.6,0.7-4.9,2.1
		C226.1,18.1,225.3,20.2,225,22.9"/>
	<path id="XMLID_47_" class="st0" d="M257.8,14.1l6.5,18.2l7-19c0.5-1.5,1.1-2.6,1.6-3.2c0.5-0.6,1.3-1,2.4-1c1,0,1.9,0.3,2.6,1
		c0.7,0.7,1.1,1.5,1.1,2.4c0,0.4-0.1,0.8-0.2,1.2c-0.1,0.5-0.3,0.9-0.4,1.3c-0.2,0.4-0.4,0.9-0.6,1.4L270,35.6
		c-0.2,0.5-0.5,1.2-0.8,2.1c-0.3,0.8-0.7,1.6-1.1,2.2c-0.4,0.6-0.9,1.1-1.6,1.4c-0.6,0.3-1.4,0.5-2.2,0.5c-1.1,0-2-0.3-2.7-0.8
		c-0.7-0.5-1.2-1.1-1.5-1.7c-0.3-0.6-0.9-1.8-1.6-3.6l-7.6-18.8c-0.2-0.5-0.4-0.9-0.5-1.4c-0.2-0.5-0.3-0.9-0.5-1.4
		c-0.1-0.5-0.2-0.9-0.2-1.3c0-0.5,0.2-1.1,0.5-1.6s0.8-1,1.4-1.3c0.6-0.3,1.2-0.5,1.9-0.5c1.3,0,2.2,0.4,2.7,1.1
		C256.6,11.1,257.1,12.4,257.8,14.1"/>
	<path id="XMLID_50_" class="st0" d="M305.8,27.4h-15.7c0,1.8,0.4,3.4,1.1,4.8c0.7,1.4,1.7,2.4,2.8,3.1c1.2,0.7,2.5,1.1,3.9,1.1
		c1,0,1.8-0.1,2.6-0.3c0.8-0.2,1.6-0.6,2.3-1.1s1.4-1,2.1-1.5c0.6-0.5,1.4-1.3,2.4-2.2c0.4-0.4,1-0.5,1.8-0.5c0.8,0,1.5,0.2,2,0.7
		s0.8,1.1,0.8,1.9c0,0.7-0.3,1.6-0.8,2.5c-0.6,1-1.4,1.9-2.6,2.8c-1.1,0.9-2.6,1.6-4.3,2.2s-3.7,0.9-6,0.9c-5.1,0-9.1-1.5-12-4.4
		s-4.3-6.9-4.3-11.9c0-2.4,0.4-4.6,1.1-6.6s1.7-3.8,3.1-5.2c1.3-1.4,3-2.6,5-3.3c2-0.8,4.2-1.2,6.6-1.2c3.1,0,5.8,0.7,8,2
		c2.2,1.3,3.9,3,5,5.1c1.1,2.1,1.7,4.2,1.7,6.4c0,2-0.6,3.3-1.7,3.9C309.5,27.1,307.9,27.4,305.8,27.4 M290.1,22.9h14.5
		c-0.2-2.7-0.9-4.8-2.2-6.1c-1.3-1.4-3-2-5.1-2c-2,0-3.6,0.7-4.9,2.1C291.2,18.1,290.4,20.2,290.1,22.9"/>
	<path id="XMLID_53_" class="st0" d="M338.9,37.2c-1.9,1.5-3.8,2.6-5.6,3.4s-3.8,1.1-6.1,1.1c-2.1,0-3.9-0.4-5.4-1.2
		c-1.6-0.8-2.8-1.9-3.6-3.3s-1.3-2.9-1.3-4.5c0-2.2,0.7-4.1,2.1-5.6c1.4-1.5,3.3-2.6,5.7-3.1c0.5-0.1,1.8-0.4,3.8-0.8
		c2-0.4,3.7-0.8,5.2-1.1c1.4-0.3,3-0.8,4.7-1.2c-0.1-2.1-0.5-3.7-1.3-4.6c-0.8-1-2.3-1.5-4.7-1.5c-2,0-3.6,0.3-4.6,0.9
		c-1,0.6-1.9,1.4-2.6,2.6c-0.7,1.1-1.3,1.9-1.6,2.2c-0.3,0.4-1,0.5-1.9,0.5c-0.9,0-1.7-0.3-2.3-0.9c-0.7-0.6-1-1.3-1-2.2
		c0-1.4,0.5-2.8,1.5-4.1s2.5-2.4,4.7-3.3c2.1-0.9,4.7-1.3,7.9-1.3c3.5,0,6.3,0.4,8.3,1.2s3.4,2.1,4.3,3.9c0.8,1.8,1.2,4.2,1.2,7.2
		c0,1.9,0,3.5,0,4.8s0,2.8,0,4.4c0,1.5,0.2,3.1,0.7,4.7c0.5,1.6,0.7,2.7,0.7,3.2c0,0.8-0.4,1.6-1.2,2.2c-0.8,0.7-1.6,1-2.6,1
		c-0.8,0-1.6-0.4-2.4-1.2C340.7,39.8,339.8,38.7,338.9,37.2 M338.4,25.6c-1.2,0.4-2.9,0.9-5.1,1.4s-3.8,0.8-4.6,1.1
		c-0.9,0.2-1.7,0.7-2.5,1.3c-0.8,0.7-1.2,1.6-1.2,2.7c0,1.2,0.5,2.2,1.4,3.1c0.9,0.9,2.1,1.3,3.6,1.3c1.6,0,3-0.3,4.4-1
		c1.3-0.7,2.3-1.6,2.9-2.7c0.7-1.2,1.1-3.2,1.1-6L338.4,25.6L338.4,25.6z"/>
	<path id="XMLID_54_" class="st0" d="M228.6,6.6c0,0,0.8-8.9,12.5-14C241.1-7.4,239.8,3.1,228.6,6.6"/>
	<path id="XMLID_55_" class="st0" d="M294.5,6.6c0,0,0.8-8.9,12.5-14C307-7.4,305.6,3.1,294.5,6.6"/>
	<path id="XMLID_57_" class="st1" d="M354-11.7l-3.5-3.8c-0.1-0.1-0.2-0.2-0.2-0.2c-0.4-0.3-0.8-0.4-1.3-0.2c-0.5,0.2-1,0.5-1.4,1.2
		c-0.2,0.3-0.4,0.6-0.5,0.9s-0.2,0.5-0.2,0.8c0,0.2,0,0.4,0,0.5s0,0.2,0,0.2c-0.1-0.1-0.4-0.1-0.7-0.1s-0.7,0.3-1.1,0.8
		c-0.5,0.7-0.8,1.4-0.7,2.1L344-9.9l-1.7,2.2l4.7,5.2l1.7-2.2l-2.9-3.2c-0.1-0.1-0.2-0.4-0.3-0.7c-0.1-0.3,0-0.7,0.2-1.1
		c0.2-0.3,0.4-0.4,0.6-0.4c0.2,0,0.5,0.1,0.8,0.3l3,3.3l1.3-1.7l-2.9-3.2c-0.1-0.1-0.2-0.4-0.3-0.7c-0.1-0.3,0-0.7,0.2-1.1
		c0.2-0.3,0.4-0.4,0.6-0.4c0.2,0,0.5,0.1,0.8,0.3l3,3.3L354-11.7z"/>
	<path id="XMLID_60_" class="st1" d="M356-14.2c-0.4,0.3-0.7,0.2-0.9,0c-0.1-0.3-0.1-0.5,0-0.7s0.4-0.5,0.8-0.8
		c0.3-0.2,0.5-0.4,0.6-0.6c0.1-0.2,0.2-0.3,0.2-0.4v-0.2l0.3,1c0,0.1,0,0.2,0,0.5c-0.1,0.3-0.3,0.5-0.6,0.8
		C356.3-14.3,356.1-14.2,356-14.2z M360.3-15.1l-1.6-4.7c-0.1-0.2-0.1-0.3-0.1-0.3c-0.3-0.5-0.7-0.7-1.3-0.7s-1.4,0.2-2.3,0.8
		c-0.5,0.3-1,0.6-1.3,0.9c-0.4,0.3-0.6,0.6-0.8,0.8c-0.2,0.2-0.3,0.4-0.3,0.4l0.1,1.8c0.1-0.2,0.3-0.6,0.7-1
		c0.4-0.5,0.9-0.9,1.6-1.3c0.3-0.2,0.6-0.3,0.8-0.3s0.4,0.1,0.5,0.2c0.1,0.2,0.1,0.4-0.1,0.7c-0.2,0.3-0.5,0.6-1,1s-1,0.8-1.3,1.2
		c-0.3,0.4-0.5,0.7-0.6,1.1c-0.1,0.4-0.1,0.8,0.1,1.3c0.3,0.6,0.8,0.9,1.3,1s1-0.1,1.6-0.4c0.6-0.4,1-0.7,1.2-1.1
		c0.2-0.3,0.3-0.6,0.3-0.7l0.2,0.7L360.3-15.1z"/>
	<path id="XMLID_61_" class="st1" d="M363.4-16l-0.2-4.1c0-0.6,0.3-1.1,0.9-1.6c0.2-0.2,0.5-0.3,0.9-0.4c0.4-0.1,0.8-0.1,1.2-0.1
		l-0.3-1.5c-0.2,0-0.4,0-0.7,0.1c-0.4,0.1-0.7,0.2-1,0.3c-0.2,0.1-0.4,0.3-0.6,0.4c-0.1,0.1-0.2,0.2-0.3,0.3l-0.1,0.2v-0.7l-2.7,0.6
		l0.3,7L363.4-16z"/>
	<polygon id="XMLID_62_" class="st1" points="369.1,-16.8 369.8,-19.3 370.4,-19.7 371.9,-16.6 374.6,-16.4 372.3,-20.7 
		376.5,-23.1 373.8,-23.3 370.4,-21.4 371.7,-26.2 368.9,-26.4 366.4,-17 	"/>
	<path id="XMLID_65_" class="st1" d="M381.7-18.5c-0.1,0.3-0.2,0.5-0.3,0.5l-2.4-0.9c0.1-0.2,0.3-0.5,0.7-0.8
		c0.3-0.3,0.8-0.3,1.4-0.1C381.7-19.5,381.9-19.1,381.7-18.5z M382.5-16.3c0,0,0.2-0.2,0.4-0.6c0.2-0.4,0.4-0.8,0.6-1.2
		c0.2-0.6,0.3-1.2,0.1-1.6c-0.2-0.4-0.4-0.7-0.8-1c-0.4-0.2-0.9-0.5-1.6-0.7c-2.2-0.8-4-0.1-5.2,2.1c-0.2,0.3-0.3,0.6-0.4,0.9
		c-0.5,1.5,0,2.6,1.6,3.2c0.1,0,0.1,0,0.2,0.1c0.1,0,0.2,0.1,0.2,0.1c0.7,0.3,1.4,0.4,1.9,0.5c0.6,0.1,1,0.1,1.2,0.1l1.2-1.3
		c-0.2,0-0.6,0.1-1.2,0.1s-1.2-0.1-1.8-0.3c-0.8-0.3-1.1-0.8-0.8-1.5c0.1-0.3,0.2-0.5,0.2-0.4L382.5-16.3z"/>
	<path id="XMLID_66_" class="st1" d="M388.3-14.9l1.1,0.9l1.1-0.9l-1.1-0.9l2.1-1.8l-2.2-1.7l-2.1,1.8l-1.1-0.9l-1.1,0.9l1.1,0.9
		l-2.6,2.2c-0.2,0.1-0.3,0.3-0.4,0.4c-0.3,0.3-0.4,0.7-0.3,1.2s0.7,1.1,1.7,1.9c0.2,0.1,0.3,0.2,0.4,0.3c0.1,0.1,0.2,0.2,0.3,0.2
		l1.1-0.9l-0.1-0.1l-0.2-0.2c-0.2-0.2-0.3-0.3-0.3-0.5s0.1-0.4,0.3-0.8L388.3-14.9z"/>
	<polygon id="XMLID_67_" class="st1" points="387.7,-7.5 389.7,-8.6 387.8,-10.9 385.8,-9.8 	"/>
	<path id="XMLID_70_" class="st1" d="M395.2-5.2c0.2,0.2,0.3,0.4,0.5,0.6c0.2,0.4,0.2,0.7,0.1,1s-0.3,0.5-0.7,0.7
		c-0.2,0.1-0.5,0.2-0.9,0.3c-0.8,0.2-1.3,0.2-1.7,0c-0.4-0.2-0.6-0.5-0.9-1c-0.1-0.3-0.2-0.5-0.2-0.8s0-0.4,0-0.4l3.3-0.8
		C394.8-5.5,395-5.3,395.2-5.2z M387-3.7l2.9-0.7c0,0.1,0,0.4,0.1,0.7c0.1,0.3,0.2,0.7,0.3,1.1c0.9,1.8,2.4,2.4,4.7,1.9
		c0.5-0.1,0.9-0.3,1.3-0.4c0.8-0.4,1.3-0.8,1.4-1.3s0-1.1-0.3-1.7c-0.2-0.4-0.4-0.8-0.7-1.1c-0.3-0.3-0.5-0.5-0.7-0.6l0.5-0.1
		l-1.1-2.6l-9.5,2.2L387-3.7z"/>
	<polygon id="XMLID_71_" class="st1" points="392.1,3.1 401.8,3.3 401.3,0.5 391.6,0.4 	"/>
	<path id="XMLID_75_" class="st1" d="M393.6,6.6c0-0.5,0.2-0.7,0.5-0.7s0.5,0.2,0.6,0.4s0.2,0.6,0.3,1.1c0,0.4,0.1,0.6,0.1,0.9
		c0.1,0.2,0.1,0.3,0.2,0.4l0.1,0.1l-1-0.3c-0.1,0-0.2-0.1-0.4-0.3s-0.3-0.5-0.4-0.9C393.6,6.9,393.6,6.7,393.6,6.6z M392,10.7
		l4.8,1.2c0.2,0,0.3,0.1,0.3,0.1c0.5,0,1-0.2,1.3-0.7c0.4-0.5,0.6-1.3,0.6-2.4c0-0.6,0-1.2,0-1.6c-0.1-0.5-0.1-0.8-0.2-1.1
		s-0.1-0.4-0.2-0.4l-1.5-0.9c0.1,0.2,0.3,0.6,0.5,1.1s0.3,1.2,0.2,2.1c0,0.3-0.1,0.6-0.2,0.8s-0.3,0.3-0.5,0.3s-0.4-0.2-0.5-0.5
		c-0.2-0.3-0.3-0.8-0.3-1.4c0-0.7-0.1-1.3-0.3-1.7c-0.1-0.5-0.3-0.9-0.6-1.2s-0.6-0.5-1.1-0.6c-0.7,0-1.2,0.1-1.5,0.5
		s-0.5,0.9-0.6,1.5c0,0.7,0,1.2,0.2,1.6c0.2,0.4,0.3,0.6,0.4,0.7l-0.7-0.2L392,10.7z"/>
	<path id="XMLID_76_" class="st1" d="M391.5,17.9c0,0,0-0.1,0-0.4c0-0.3,0-0.6,0.1-1c0-0.4,0.1-0.8,0.3-1.1c0.3-0.7,0.8-0.9,1.5-0.6
		c0.2,0.1,0.5,0.2,0.9,0.5c0.5,0.3,0.9,0.7,1.1,1.1c0.2,0.4,0.2,0.8,0.1,1.4c-0.2,0.5-0.4,0.9-0.7,1.2c-0.2,0.3-0.4,0.4-0.5,0.5
		l1.5,0.7c0.1-0.1,0.3-0.4,0.5-0.8c0.2-0.4,0.5-0.9,0.7-1.4c0.4-1.2,0.5-2.2,0.2-3s-0.9-1.6-1.9-2.1c-0.4-0.3-0.8-0.5-1.2-0.6
		c-0.8-0.3-1.5-0.3-2,0.1c-0.5,0.4-1,1.1-1.4,2.1c-0.2,0.6-0.4,1.1-0.4,1.5c-0.1,0.4-0.1,0.7-0.1,0.9L391.5,17.9z"/>
	<path id="XMLID_80_" class="st1" d="M389.9,24.7c-0.3-0.2-0.4-0.4-0.4-0.4l1.6-2c0.2,0.2,0.4,0.5,0.6,0.9s0.1,0.9-0.3,1.4
		C390.9,25,390.4,25,389.9,24.7z M387.6,24.8c0,0,0.1,0.2,0.4,0.6c0.3,0.3,0.6,0.6,0.9,0.9c0.5,0.4,1,0.6,1.5,0.6
		c0.4,0,0.8-0.2,1.2-0.5c0.3-0.3,0.7-0.7,1.2-1.3c1.4-1.9,1.3-3.8-0.4-5.6c-0.2-0.2-0.4-0.5-0.7-0.7c-1.2-1-2.4-0.8-3.6,0.6
		l-0.2,0.2l-0.2,0.2c-0.5,0.6-0.8,1.2-1.1,1.7c-0.2,0.5-0.4,0.9-0.5,1.1l0.9,1.5c0-0.2,0.1-0.6,0.3-1.1c0.2-0.5,0.5-1.1,0.9-1.6
		c0.5-0.7,1.1-0.8,1.7-0.4c0.3,0.2,0.4,0.3,0.4,0.4L387.6,24.8z"/>
	<path id="XMLID_82_" class="st0" d="M136,49.6c0.1-0.3-0.1-0.5-0.7-0.5h-2.2c-0.7,3.3-2.1,6.7-3.5,9l-3.5-8.7
		c-0.1-0.3-0.3-0.4-0.7-0.4c-0.6,0-1.5,0.3-2.1,0.7l4.7,11.1h2.3c0.7,0,0.9-0.2,1.1-0.5C133.4,57.2,135.2,53.1,136,49.6z"/>
	<path id="XMLID_85_" class="st0" d="M142.5,59.2c-1.5,0-2.8-1.1-2.8-3s1.2-2.8,2.6-2.8c1.5,0,2.7,1.1,2.7,3
		C145,58.3,143.9,59.2,142.5,59.2z M142.4,51.7c-2.8,0-5.3,1.7-5.3,4.7s2.5,4.7,5.3,4.7c2.8,0,5.3-1.7,5.3-4.7
		S145.2,51.7,142.4,51.7z"/>
	<path id="XMLID_86_" class="st0" d="M154.3,61c1.6,0,2.6-0.6,2.6-1.1c0-0.3-0.2-0.7-0.4-0.9c-0.4,0.2-1,0.2-1.5,0.2
		c-1,0-1.6-0.4-1.6-1.4v-4.2h3.4v-1.2c0-0.4-0.2-0.6-0.5-0.6h-2.9v-2.2c0-0.3-0.3-0.5-0.8-0.5c-0.7,0-1.3,0.1-1.9,0.2v2.5h-1.6
		c-0.1,0.4-0.2,0.8-0.2,1.2s0.2,0.6,0.6,0.6h1.2v4C150.7,59.9,152.1,61,154.3,61z"/>
	<path id="XMLID_87_" class="st0" d="M164.6,51.7c-1.3,0-2.4,0.6-3,1.4v-0.9c0-0.3-0.2-0.5-0.8-0.5c-0.7,0-1.3,0.1-1.9,0.2v8.4
		c0,0.3,0.2,0.4,0.7,0.4h2v-5.5c0.3-1.2,1.1-1.8,2.3-1.8c0.6,0,1.2,0.1,1.6,0.4c0.6-0.3,1.2-0.8,1.2-1.3
		C166.8,51.9,165.7,51.7,164.6,51.7z"/>
	<path id="XMLID_93_" class="st0" d="M201.4,60.9c1.4,0,2.3-0.5,2.3-1c0-0.3-0.1-0.7-0.3-0.9c-0.3,0.1-0.8,0.2-1.1,0.2
		c-0.7,0-1.1-0.4-1.1-1.2v-9c0-0.3-0.2-0.5-0.8-0.5c-0.7,0-1.3,0.1-1.9,0.2v9.2C198.5,59.6,199.3,60.9,201.4,60.9z M191,53.5
		c1.6,0,2.5,1,2.5,2.6c0,1.8-1.3,3.1-3.1,3.1c-0.8,0-1.5-0.2-2-0.6v-3.3C188.9,54.1,189.9,53.5,191,53.5z M185.8,63.9
		c0,0.3,0.2,0.5,0.7,0.5h2v-4.2C189,60.7,190,61,191,61c2.7,0,5.1-1.9,5.1-5c0-2.7-2-4.3-4.5-4.3c-1.4,0-2.5,0.6-3.3,1.5v-1
		c0-0.3-0.2-0.5-0.8-0.5c-0.7,0-1.3,0.1-1.9,0.2v12H185.8z M173.1,53.4c1.2,0,1.9,0.6,1.9,1.6c0,0.2,0,0.4-0.1,0.6h-4.4
		C170.7,54.2,171.6,53.4,173.1,53.4z M173.1,61c2.1,0,3.4-0.8,3.4-1.3c0-0.3-0.2-0.7-0.4-0.9c-0.8,0.3-1.6,0.5-2.5,0.5
		c-1.7,0-2.9-0.7-3.2-2.1h5.1c0.8,0,1.3-0.2,1.6-0.7c0.2-0.4,0.4-0.9,0.4-1.5c0-1.9-1.7-3.3-4.4-3.3c-3,0-5.4,1.8-5.4,4.7
		C167.8,59.1,170,61,173.1,61z"/>
	<path id="XMLID_96_" class="st0" d="M209.1,59.3c-0.9,0-1.7-0.4-1.7-1.2c0-0.8,0.8-1.3,2.1-1.3c0.6,0,1.4,0.1,1.9,0.2v1
		C210.9,58.8,210,59.3,209.1,59.3z M208.7,53.4c1.8,0,2.6,0.6,2.6,1.7v0.6c-0.5-0.2-1.5-0.4-2.4-0.4c-2.5,0-4.2,1.1-4.2,2.9
		c0,1.7,1.5,2.8,3.6,2.8c1.4,0,2.5-0.5,3.1-1.4c0.3,0.9,1.2,1.3,2,1.3c1,0,1.7-0.5,1.7-1c0-0.3-0.1-0.5-0.1-0.8h-0.5
		c-0.5,0-0.7-0.2-0.7-0.8v-3.1c0-2.4-1.6-3.6-4.5-3.6c-2.1,0-3.8,0.8-3.8,1.4c0,0.3,0.1,0.7,0.3,0.9
		C206.8,53.6,207.8,53.4,208.7,53.4z"/>
	<path id="XMLID_100_" class="st0" d="M232.9,53.4c1.2,0,1.9,0.6,1.9,1.6c0,0.2,0,0.4-0.1,0.6h-4.4
		C230.4,54.2,231.4,53.4,232.9,53.4z M232.9,61c2.1,0,3.4-0.8,3.4-1.3c0-0.3-0.2-0.7-0.4-0.9c-0.8,0.3-1.6,0.5-2.5,0.5
		c-1.7,0-2.9-0.7-3.2-2.1h5.1c0.8,0,1.3-0.2,1.6-0.7c0.2-0.4,0.4-0.9,0.4-1.5c0-1.9-1.7-3.3-4.4-3.3c-3,0-5.4,1.8-5.4,4.7
		C227.5,59.1,229.8,61,232.9,61z M225.7,59.7c0-0.3-0.2-0.7-0.4-0.9c-0.8,0.3-1.6,0.5-2.5,0.5c-2,0-3.7-1.1-3.7-3.2
		c0-1.6,1-2.6,2.4-2.6c1.2,0,1.9,0.6,2.2,1.5c0.7,0,1.3-0.2,1.7-0.4c0.3-0.2,0.5-0.4,0.5-0.6s0-0.3-0.2-0.5c-0.6-1-2.1-1.8-4.1-1.8
		c-3.1,0-5.2,1.7-5.2,4.4c0,3.1,2.7,4.9,5.7,4.9C224.3,61,225.7,60.3,225.7,59.7z"/>
	<path id="XMLID_103_" class="st0" d="M252.7,57.4c-0.5,1.3-1.5,1.8-2.6,1.8c-1.6,0-2.5-1-2.5-2.6c0-1.8,1.3-3.1,3.1-3.1
		c0.8,0,1.5,0.2,2,0.6V57.4z M252.7,48.6v3.9c-0.7-0.5-1.6-0.8-2.6-0.8c-2.7,0-5.1,1.9-5.1,5c0,2.7,2,4.3,4.5,4.3
		c1.3,0,2.6-0.6,3.4-1.6c0.3,1.1,1.2,1.6,2.1,1.6c1.1,0,1.7-0.5,1.7-1c0-0.3,0-0.5-0.1-0.8h-0.4c-0.5,0-0.7-0.2-0.7-0.8v-9.3
		c0-0.3-0.2-0.5-0.7-0.5C254.8,48.6,252.7,48.6,252.7,48.6z"/>
	<path id="XMLID_106_" class="st0" d="M263.3,53.4c1.2,0,1.9,0.6,1.9,1.6c0,0.2,0,0.4-0.1,0.6h-4.4
		C260.9,54.2,261.9,53.4,263.3,53.4z M263.3,61c2.1,0,3.4-0.8,3.4-1.3c0-0.3-0.2-0.7-0.4-0.9c-0.8,0.3-1.6,0.5-2.5,0.5
		c-1.7,0-2.9-0.7-3.2-2.1h5.1c0.8,0,1.3-0.2,1.6-0.7c0.2-0.4,0.4-0.9,0.4-1.5c0-1.9-1.7-3.3-4.4-3.3c-3,0-5.4,1.8-5.4,4.7
		C258,59.1,260.2,61,263.3,61z"/>
	<path id="XMLID_107_" class="st0" d="M288.2,60.4c0,0.3,0.3,0.5,0.8,0.5h2.2l-1.4-11.3c0-0.3-0.2-0.4-0.7-0.4h-1.9l-3.7,5.9
		l-3.5-5.6c-0.2-0.3-0.4-0.4-0.8-0.4c-0.5,0-1.4,0.2-2,0.6l-1.4,10.8c0,0.3,0.2,0.5,0.7,0.5h2.1l0.9-8.2l2.9,4.6h1.4
		c0.5,0,0.8-0.1,0.9-0.4l2.7-4.2L288.2,60.4z"/>
	<path id="XMLID_110_" class="st0" d="M297.4,59.3c-0.9,0-1.7-0.4-1.7-1.2c0-0.8,0.8-1.3,2.1-1.3c0.6,0,1.4,0.1,1.9,0.2v1
		C299.3,58.8,298.4,59.3,297.4,59.3z M297.1,53.4c1.8,0,2.6,0.6,2.6,1.7v0.6c-0.5-0.2-1.5-0.4-2.4-0.4c-2.5,0-4.2,1.1-4.2,2.9
		c0,1.7,1.5,2.8,3.6,2.8c1.4,0,2.5-0.5,3.1-1.4c0.3,0.9,1.2,1.3,2,1.3c1,0,1.7-0.5,1.7-1c0-0.3-0.1-0.5-0.1-0.8h-0.5
		c-0.5,0-0.7-0.2-0.7-0.8v-3.1c0-2.4-1.6-3.6-4.5-3.6c-2.1,0-3.8,0.8-3.8,1.4c0,0.3,0.1,0.7,0.3,0.9
		C295.2,53.6,296.1,53.4,297.1,53.4z"/>
	<path id="XMLID_111_" class="st0" d="M311.2,51.7c-1.3,0-2.4,0.6-3,1.4v-0.9c0-0.3-0.2-0.5-0.8-0.5c-0.7,0-1.3,0.1-1.9,0.2v8.4
		c0,0.3,0.2,0.4,0.7,0.4h2v-5.5c0.3-1.2,1.1-1.8,2.3-1.8c0.6,0,1.2,0.1,1.6,0.4c0.6-0.3,1.2-0.8,1.2-1.3
		C313.4,51.9,312.2,51.7,311.2,51.7z"/>
	<path id="XMLID_112_" class="st0" d="M323.6,59.7c0-0.3-0.2-0.7-0.4-0.9c-0.8,0.3-1.6,0.5-2.5,0.5c-2,0-3.7-1.1-3.7-3.2
		c0-1.6,1-2.6,2.4-2.6c1.2,0,1.9,0.6,2.2,1.5c0.7,0,1.3-0.2,1.7-0.4c0.3-0.2,0.5-0.4,0.5-0.6s0-0.3-0.2-0.5c-0.6-1-2.1-1.8-4.1-1.8
		c-3.1,0-5.2,1.7-5.2,4.4c0,3.1,2.7,4.9,5.7,4.9C322.2,61,323.6,60.3,323.6,59.7z"/>
	<path id="XMLID_113_" class="st0" d="M328.6,60.8v-6.6c0.6-0.5,1.5-0.8,2.3-0.8c1.3,0,1.9,0.7,1.9,1.9v3.2c0,1.7,1.1,2.3,2.2,2.3
		c1.1,0,1.7-0.5,1.7-1c0-0.3,0-0.5-0.1-0.8h-0.5c-0.4,0-0.6-0.2-0.6-0.8v-2.8c0-2.5-1.3-3.9-3.7-3.9c-1.2,0-2.5,0.5-3.2,1.2V49
		c0-0.3-0.3-0.5-0.8-0.5c-0.7,0-1.3,0.1-1.9,0.2v11.7c0,0.3,0.2,0.5,0.7,0.5L328.6,60.8L328.6,60.8z"/>
	<path id="XMLID_117_" class="st0" d="M345.3,49.3c-0.2-0.4-0.6-0.8-0.9-1c-0.2-0.2-0.4-0.2-0.6-0.2c-0.2,0-0.3,0.1-0.5,0.3
		l-2.2,1.9l0.8,0.7c0.1,0.1,0.3,0.2,0.4,0.2c0.1,0,0.3,0,0.5-0.2L345.3,49.3z M343.4,53.4c1.2,0,1.9,0.6,1.9,1.6
		c0,0.2,0,0.4-0.1,0.6h-4.4C341,54.2,342,53.4,343.4,53.4z M343.5,61c2.1,0,3.4-0.8,3.4-1.3c0-0.3-0.2-0.7-0.4-0.9
		c-0.8,0.3-1.6,0.5-2.5,0.5c-1.7,0-2.9-0.7-3.2-2.1h5.1c0.8,0,1.3-0.2,1.6-0.7c0.2-0.4,0.4-0.9,0.4-1.5c0-1.9-1.7-3.3-4.4-3.3
		c-3,0-5.4,1.8-5.4,4.7C338.1,59.1,340.3,61,343.5,61z"/>
	<path id="XMLID_119_" class="st2" d="M122.9,19.4h0.7c0-6,2.4-11.5,6.4-15.5s9.4-6.4,15.5-6.4c6,0,11.5,2.4,15.5,6.4
		s6.4,9.4,6.4,15.5c0,6-2.4,11.5-6.4,15.5s-9.4,6.4-15.5,6.4c-6,0-11.5-2.4-15.5-6.4s-6.4-9.4-6.4-15.5H122.9h-0.7
		c0,12.8,10.4,23.3,23.3,23.3c12.8,0,23.3-10.4,23.3-23.3c0-12.8-10.4-23.3-23.3-23.3c-12.8,0-23.3,10.4-23.3,23.3l0,0
		C122.2,19.4,122.9,19.4,122.9,19.4z"/>
	<path id="XMLID_120_" class="st2" d="M142.5,30.6L142.5,30.6c-0.1-3.7-1.3-7.3-1.3-7.3l0,0c-1.9-6.4-6.2-11.8-3.9-19.5l0,0
		c-10.4,13.1-2.6,22.5,1.7,29.5c0.1,0.2,0.3,0.4,0.4,0.6c0.3,0.5,0.6,0.9,0.8,1.4c0.1,0.2,0.2,0.4,0.3,0.5c0.5,1,0.6,1.8,0.8,2.6
		l0,0C142.2,35.5,142.5,32.9,142.5,30.6"/>
	<path id="XMLID_121_" class="st1" d="M140.6,21.7c0.2,0.5,0.3,1,0.5,1.5c0,0,1.3,3.6,1.3,7.2v0.1l0,0c3.2-11.8,10.5-21.4,18.7-23.4
		V6.9C151.7,4.2,143.6,10.6,140.6,21.7"/>
	<path id="XMLID_124_" class="st1" d="M375.1,7.3V4.1h3c0,0,0.4-0.1,0.8,0.5c0.4,0.6,1.2,2.6,1.2,2.6L375.1,7.3"/>
	<path class="st1" d="M369.4-10.6c-9.2,0-16.7,7.5-16.7,16.7c0,9.2,7.5,16.7,16.7,16.7s16.7-7.5,16.7-16.7
		C386.1-3.1,378.6-10.6,369.4-10.6z M361.8,14.1c-1,0-1.7-0.8-1.7-1.7c0-1,0.8-1.7,1.7-1.7c0.9,0,1.7,0.8,1.7,1.7
		C363.5,13.4,362.7,14.1,361.8,14.1z M372.6,12.8h-8.1c0,0,0.4-3-2.7-3.1c-2.9,0.2-2.7,3-2.7,3h-2.3V0c0,0-0.1-0.8,0.9-0.9
		c0.9-0.1,14.1,0,14.1,0s0.8,0.2,0.8,0.9V12.8z M377.6,14.1c-1,0-1.7-0.8-1.7-1.7c0-1,0.8-1.7,1.7-1.7c0.9,0,1.7,0.8,1.7,1.7
		C379.3,13.4,378.5,14.1,377.6,14.1z M380.3,12.6c0.1-2.9-2.8-3.1-2.8-3.1s-2.7-0.3-2.7,3.1c-0.7,0-1.4,0.1-1.4,0.1V3h4.9
		c0,0,0.6-0.2,1.2,0.7c0.6,0.9,2.3,3.7,2.3,3.7v4.3C381.8,11.7,381.5,12.3,380.3,12.6z"/>
</g>
</svg>
